	<!-- sample rectangle -->
<svg width="120" height="70" xmlns="http://www.w3.org/2000/svg">
<g>
	<path fill="#FFFFFF" d="M97.4,13.4c-0.4,0-0.8,0.3-0.8,0.7c0,0.1,0,0.2,0.1,0.2c0,0,0,0.1,0,0.1c0.1,0.3,0.6,0.4,1,0.3
		c0.1,0,0.1-0.1,0.2-0.1c0.2-0.1,0.4-0.3,0.4-0.5C98.2,13.6,97.8,13.4,97.4,13.4z"></path>
	<path fill="#FFFFFF" d="M95.3,13.4L95.3,13.4c-0.2,0-0.4,0-0.5,0.1c-0.2,0.1-0.3,0.3-0.3,0.5c0,0.4,0.4,0.6,0.8,0.6h0.1
		c0.3,0,0.6-0.1,0.7-0.3c0-0.1,0.1-0.2,0.1-0.3v0C96.1,13.6,95.7,13.4,95.3,13.4z"></path>
	<path fill-rule="evenodd" clip-rule="evenodd" fill="#FFFFFF" d="M100,9.2c-0.1,1.1-0.2,0.7-0.6,0.5c-0.6-0.3-1.3-0.2-1.8,0.3
		c-0.4,0.4-1.7,0.5-2.4,0c-0.1-0.1-0.2-0.2-0.3-0.2c-0.6-0.3-1.4-0.1-1.8,0.4c-0.1,0.1-0.1,0.3-0.1,0.5c0,0.3-0.1,0.6-0.6-0.1
		c-0.9-1.2,0.3-2.8,1.7-2.1c2.3,1.1,2.6,0.8,5,0C99.8,8.1,100.1,8.6,100,9.2z M98.1,15.7v0.6c0,0.2-0.4,0.4-0.4,0.4
		c-0.4-0.4-2.6-0.4-3,0c0,0-0.4-0.2-0.4-0.4v-0.6c-0.4-0.3-0.7-0.9-0.7-1.5c0-1,0.7-1.8,1.5-1.8c0.4,0,0.8,0.2,1.1,0.6
		c0.3-0.3,0.7-0.6,1.1-0.6c0.8,0,1.5,0.8,1.5,1.8C98.9,14.8,98.6,15.4,98.1,15.7z M96.2,17.7c-0.7,0-1.2-0.1-1.2-0.3
		s0.5-0.3,1.2-0.3c0.7,0,1.2,0.1,1.2,0.3S96.9,17.7,96.2,17.7z M107.5,13.2c-1.1-1.1-1.6-1.7-3-1.7c-0.2,0-0.6-0.1-0.8,0
		c-0.6,3.5-2.2,5.9-1.4,3.4c1.1-3.1,0.5-6.2,0-8c-0.2-0.8-0.2-1.5-0.5-2.1c-0.6-1.4-2-4.2-5.3-4.2c-1.9,0-4.1-0.2-5.8,2.5
		c-0.6,1-1,2.4-0.8,4.1c0.2,1.8-0.5,0.1-0.5-1.7c0-0.2-0.4,0.7-0.4,0.8c0,0-0.5,0.9-1.9,4.6c-0.4-0.1-1.1-0.1-1.6-0.1
		c-4-0.3-5.3,4.4-5.6,5.2l-0.6,2.1c-0.2,0.8-0.5,3-0.4,4.5c0.1,2.6,0.8,4.8,2.8,7.7c0.3,0.4,0.2,0.5,0,0.5c-3.8-0.2-6.1-1.6-7.6-2.9
		c-1.4-1.3-1.8-2.1-2.1-2.7c0-1.1,0.2-1.9,0.7-3.7c0.8-2.2,2.3-4.5,5.9-5.4c0.4-0.1,0.3-0.2,0-0.2c-4.1,0.8-6,2.8-7.5,6.3
		c-0.9,2.1-1.1,4.2-0.9,6.6c0.2,3.6,0.9,4.8,1.8,6.5c0.5,0.8,1.1,1.6,1.9,2.2c1.2,0.9-0.1,0.6-1.7-0.8c-0.2-0.1-0.5,1-0.6,2.2
		c-0.2,2.8,0.5,6,1.2,7.8c0.1,0.3,0.2,0.5,0.2,0.8c0.1,0.7,0.1,1.3-0.1,2.3c-0.2,0.3-0.3,0.6-0.3,0.8c0.2,0.9,4.3,1.2,5.9,0.4
		l0.1-0.1c0-0.3-0.3-0.7-0.1-0.7c0.2,0,0.3,0.1,0.8,0.1l0.5,0c0.2,0,0.3,0,0.7,0c0.1,0,0.1-0.1,0.1-0.3l0-0.5c0-0.1,0.1-0.2,0-0.3
		c0,0-0.1-0.1-0.1-0.1l-0.2-0.1L80,49.1c0,0-0.2,0-0.2-0.1c0,0,0-0.2,0-0.2c0,0,0-0.2,0-0.2l0.2,0c0.1,0,0.9-0.1,0.9-0.1l0-0.3
		l0.1-1.6l0.3-5.2l0.2-3.2c0,0-0.2-0.2-0.2-0.2L81,37.8c0,0-0.1,0-0.1-0.1v-0.3c0,0,0.1,0,0.1,0l0.5-0.1c0,0,0-0.4,0-0.5
		c0-0.1,0-0.1,0.2-0.1c0.1,0,0.1,0,0.1-0.1l0-1c0-1.2,0.2-1.2,0.2,0l0,1c0,0.1,0,0.2,0.1,0.2c0.1,0,0.2,0,0.2,0.1l0,0.3
		c0,0,0,0.1,0,0.2l0.2,0c0.1,0,0.4,0.1,0.4,0.1v0.3c0,0-0.1,0.1-0.1,0.1l-0.4,0.4c0,0,0,0,0,0l0.2,3.5l0.4,5.1l0.1,1.5
		c0,0.1,0,0.2,0.1,0.2l1.1,0.1V49c0,0.1-0.2,0.1-0.2,0.1l-0.8,0.4c-0.1,0-0.1,0,0,0.1l0,0.4l0.1,1.3l0.1,0.9
		c0.2,0.4,0.3,0.7,0.4,0.9c0.2,0.7,0,1.7,0,2.5c-0.1,0.2-0.1,0.3-0.1,0.5c0.1,1,2,1.6,4.3,1.5c1.1-0.1,2.2-0.1,2.9-0.4
		c1.3,0.6,3,0.1,2.9-0.5c0-0.4,0.2-0.5-0.3-0.9c0,0-0.2-0.1-0.2-0.1l-0.1-0.2l0.9-18c-0.1,0-0.2-0.1-0.4-0.1
		c-0.5-0.2-0.9-0.6-1.2-0.9c-0.4-0.4-0.6-0.7-0.8-1.2c-0.2-0.5-0.3-1-0.3-1.5c0-0.5,0.2-1,0.4-1.5c0.2-0.5,0.4-0.8,0.8-1.1
		c0.4-0.4,0.8-0.7,1.2-0.9c0.2-0.1,0.6-0.2,0.7-0.3l0-0.8c0-0.4,0.2-0.5,0.5-0.5c0-1.6,0.1-4.5,0.1-4.8c0-2.6,0.5-2.6,0.6,0
		c0,0,0,1.6,0.1,4.8c0.3,0,0.5,0.1,0.5,0.6v0.8c0.2,0.1,0.5,0.2,0.7,0.3c0.5,0.2,0.9,0.6,1.2,0.9c0.3,0.4,0.6,0.7,0.8,1.1
		c0.2,0.5,0.3,1,0.3,1.5s-0.1,1-0.3,1.5c-0.2,0.5-0.5,0.9-0.8,1.2c-0.3,0.3-0.8,0.6-1.2,0.8c0,0-0.4,0.1-0.4,0.1c0,0.6,0-0.3,0,0.3
		l0.8,16.2c0.3,0.1,0.5,0.2,1,0.2c1.4,0.1,4.6-0.5,4.6-1.1c0-0.1,0.1-0.5,0-0.6c0.1-0.5,0.1-0.8,0.2-1.5c0.2-0.9,0.2-1.4,0.4-2.3
		c0.5-1.8,0.1-3.1,0.8-4.7c1-1,1.6-2.5,2.1-4.3c0.4-1.6,0.6-3.1,0.6-4.5c0.6-1.6,1.1-2.3,1.6-3.8c0.5-1.9,0.9-3.9,1.2-6.2
		C110.3,19.7,109.2,15.3,107.5,13.2z"></path>
	<path fill-rule="evenodd" clip-rule="evenodd" fill="#FFFFFF" d="M1.3,48.4l8-11.3c0.4-0.5,0.8-0.9,0.8-0.9v0c0,0-0.6,0.1-1.1,0.1
		H5.3v2.7H1.4v-6.3h14.4v2.8l-8,11.4c-0.4,0.5-0.8,0.9-0.8,0.9v0.1c0,0,0.6-0.1,1.1-0.1h4.1v-2.8h3.9v6.4H1.3V48.4z"></path>
	<path fill-rule="evenodd" clip-rule="evenodd" fill="#FFFFFF" d="M27.9,47.6c2.8,0,5-2.5,5-5.7c0-3.1-2.2-5.5-5-5.5s-5,2.4-5,5.5
		C22.9,45.1,25.1,47.6,27.9,47.6z M27.9,32.3c5.7,0,9.8,4.2,9.8,9.6c0,5.5-4.1,9.8-9.8,9.8c-5.7,0-9.8-4.3-9.8-9.8
		C18,36.5,22.2,32.3,27.9,32.3z"></path>
	<path fill-rule="evenodd" clip-rule="evenodd" fill="#FFFFFF" d="M49.4,47.6c2.8,0,5-2.5,5-5.7c0-3.1-2.2-5.5-5-5.5s-5,2.4-5,5.5
		C44.4,45.1,46.7,47.6,49.4,47.6z M49.4,32.3c5.7,0,9.8,4.2,9.8,9.6c0,5.5-4.1,9.8-9.8,9.8c-5.7,0-9.8-4.3-9.8-9.8
		C39.6,36.5,43.7,32.3,49.4,32.3z"></path>



  </g>
</svg>